<svg xmlns="http://www.w3.org/2000/svg" version="1.1" xmlns:xlink="http://www.w3.org/1999/xlink" xmlns:svgjs="http://svgjs.com/svgjs" width="1440" height="250" preserveAspectRatio="none" viewBox="0 0 1440 250"><g mask="url(&quot;#SvgjsMask1039&quot;)" fill="none"><rect width="1440" height="250" x="0" y="0" fill="rgba(234, 234, 234, 1)"></rect><path d="M9 250L259 0L308.5 0L58.5 250z" fill="url(#SvgjsLinearGradient1040)"></path><path d="M240.60000000000002 250L490.6 0L678.1 0L428.1 250z" fill="url(#SvgjsLinearGradient1040)"></path><path d="M511.20000000000005 250L761.2 0L927.7 0L677.7 250z" fill="url(#SvgjsLinearGradient1040)"></path><path d="M760.8000000000001 250L1010.8000000000001 0L1087.3000000000002 0L837.3000000000001 250z" fill="url(#SvgjsLinearGradient1040)"></path><path d="M1415 250L1165 0L1060 0L1310 250z" fill="url(#SvgjsLinearGradient1041)"></path><path d="M1154.4 250L904.4000000000001 0L712.4000000000001 0L962.4000000000001 250z" fill="url(#SvgjsLinearGradient1041)"></path><path d="M931.8 250L681.8 0L561.8 0L811.8 250z" fill="url(#SvgjsLinearGradient1041)"></path><path d="M706.1999999999999 250L456.19999999999993 0L337.69999999999993 0L587.6999999999999 250z" fill="url(#SvgjsLinearGradient1041)"></path><path d="M1245.4316546327077 250L1440 55.43165463270776L1440 250z" fill="url(#SvgjsLinearGradient1040)"></path><path d="M0 250L194.56834536729224 250L 0 55.43165463270776z" fill="url(#SvgjsLinearGradient1041)"></path></g><defs><mask id="SvgjsMask1039"><rect width="1440" height="250" fill="#ffffff"></rect></mask><linearGradient x1="0%" y1="100%" x2="100%" y2="0%" id="SvgjsLinearGradient1040"><stop stop-color="rgba(209, 209, 209, 1)" offset="0"></stop><stop stop-opacity="0" stop-color="rgba(209, 209, 209, 1)" offset="0.66"></stop></linearGradient><linearGradient x1="100%" y1="100%" x2="0%" y2="0%" id="SvgjsLinearGradient1041"><stop stop-color="rgba(209, 209, 209, 1)" offset="0"></stop><stop stop-opacity="0" stop-color="rgba(209, 209, 209, 1)" offset="0.66"></stop></linearGradient></defs></svg>