<?xml version="1.0" encoding="iso-8859-1"?>
<!-- Generator: Adobe Illustrator 19.0.0, SVG Export Plug-In . SVG Version: 6.00 Build 0)  -->
<svg version="1.1" id="Capa_1" xmlns="http://www.w3.org/2000/svg" xmlns:xlink="http://www.w3.org/1999/xlink" x="0px" y="0px"
	 viewBox="0 0 512 512" style="enable-background:new 0 0 512 512;" xml:space="preserve">
<path style="fill:#e7e7e7;" d="M512,52.023c0-22.091-17.909-40-40-40H168c-22.091,0-40,17.909-40,40v216c0,22.091,17.909,40,40,40
	h304c22.091,0,40-17.909,40-40V52.023z"/>
<path style="fill:#d9d9d9;" d="M408,68.023H104c-22.056,0-40,17.944-40,40v216c0,22.056,17.944,40,40,40h304
	c22.056,0,40-17.944,40-40v-216C448,85.967,430.056,68.023,408,68.023z"/>
<path style="fill:#f9f9f9;" d="M344,124.023H40c-22.056,0-40,17.944-40,40v216c0,22.056,17.944,40,40,40h40v72
	c0,6.628,8.003,10.411,13.122,6.146l93.775-78.146H344c22.056,0,40-17.944,40-40v-216C384,141.967,366.056,124.023,344,124.023z"/>
<g>
	<path style="fill:#f2f2f2;" d="M24,380.023v-216c0-22.056,17.944-40,40-40H40c-22.056,0-40,17.944-40,40v216
		c0,22.056,17.944,40,40,40h24C41.944,420.023,24,402.08,24,380.023z"/>
	<path style="fill:#E7E5DA;" d="M104,420.023H80v72c0,6.628,8.003,10.411,13.122,6.146L104,489.104V420.023z"/>
</g>
<g>
	<path style="fill:#d6d6d6;" d="M160,212.023H96c-4.418,0-8-3.582-8-8s3.582-8,8-8h64c4.418,0,8,3.582,8,8
		S164.418,212.023,160,212.023z"/>
	<path style="fill:#d6d6d6;" d="M240,212.023h-48c-4.418,0-8-3.582-8-8s3.582-8,8-8h48c4.418,0,8,3.582,8,8
		S244.418,212.023,240,212.023z"/>
</g>
<g>
	<path style="fill:#e3e3e3;" d="M200,276.023H96c-4.418,0-8-3.582-8-8s3.582-8,8-8h104c4.418,0,8,3.582,8,8
		S204.418,276.023,200,276.023z"/>
	<path style="fill:#e3e3e3;" d="M328,276.023h-88c-4.418,0-8-3.582-8-8s3.582-8,8-8h88c4.418,0,8,3.582,8,8
		S332.418,276.023,328,276.023z"/>
	<path style="fill:#e3e3e3;" d="M160,316.023H96c-4.418,0-8-3.582-8-8s3.582-8,8-8h64c4.418,0,8,3.582,8,8
		S164.418,316.023,160,316.023z"/>
	<path style="fill:#e3e3e3;" d="M328,316.023H192c-4.418,0-8-3.582-8-8s3.582-8,8-8h136c4.418,0,8,3.582,8,8
		S332.418,316.023,328,316.023z"/>
	<path style="fill:#e3e3e3;" d="M240,356.023H96c-4.418,0-8-3.582-8-8s3.582-8,8-8h144c4.418,0,8,3.582,8,8
		S244.418,356.023,240,356.023z"/>
</g>
<g>
</g>
<g>
</g>
<g>
</g>
<g>
</g>
<g>
</g>
<g>
</g>
<g>
</g>
<g>
</g>
<g>
</g>
<g>
</g>
<g>
</g>
<g>
</g>
<g>
</g>
<g>
</g>
<g>
</g>
</svg>
