<?xml version="1.0" encoding="iso-8859-1"?>
<!-- Generator: Adobe Illustrator 17.1.0, SVG Export Plug-In . SVG Version: 6.00 Build 0)  -->
<!DOCTYPE svg>
<svg version="1.1" id="Capa_1" xmlns="http://www.w3.org/2000/svg" xmlns:xlink="http://www.w3.org/1999/xlink" x="0px" y="0px"
	 viewBox="0 0 295.934 295.934" style="enable-background:new 0 0 295.934 295.934;" xml:space="preserve">
	 <defs>
      <style>
        #Capa_1 {
          fill: #f2f2f2;
        }
      </style>
    </defs>
<g>
	<rect x="55.634" y="40" width="185" height="25"/>
	<path d="M240.634,10c0-5.523-4.145-10-9.667-10h-165c-5.522,0-10.333,4.477-10.333,10v15h185V10z"/>
	<path d="M173.67,84.679L183.699,105h47.268c5.523,0,9.667-4.478,9.667-10V80h-69.866C171.862,81.447,172.844,83.004,173.67,84.679z
		"/>
	<path d="M125.167,80H55.634v15c0,5.522,4.811,10,10.333,10h46.269l10.03-20.323C123.092,83.003,124.072,81.446,125.167,80z"/>
	<path d="M221.51,279.963l-10.256-59.826l43.46-42.361c3.724-3.631,5.064-9.06,3.457-14.006c-1.606-4.946-5.882-8.551-11.029-9.298
		l-60.061-8.726l-26.862-54.429c-2.302-4.664-7.051-7.616-12.251-7.616s-9.949,2.952-12.252,7.616l-26.863,54.428l-60.06,8.727
		c-5.146,0.747-9.423,4.352-11.029,9.299c-1.607,4.946-0.267,10.375,3.458,14.005l43.465,42.361l-10.264,59.825
		c-0.88,5.125,1.228,10.306,5.436,13.362c2.38,1.73,5.199,2.609,8.031,2.609c2.176,0,4.357-0.518,6.357-1.57l53.722-28.243
		l53.719,28.243c1.998,1.053,4.183,1.57,6.355,1.57c2.833,0,5.651-0.88,8.032-2.608C220.281,290.269,222.389,285.088,221.51,279.963
		z"/>
</g>
<g>
</g>
<g>
</g>
<g>
</g>
<g>
</g>
<g>
</g>
<g>
</g>
<g>
</g>
<g>
</g>
<g>
</g>
<g>
</g>
<g>
</g>
<g>
</g>
<g>
</g>
<g>
</g>
<g>
</g>
</svg>
