<svg width="220" height="143" viewBox="0 0 220 143" fill="none" xmlns="http://www.w3.org/2000/svg">
<g clip-path="url(#clip0)">
<path d="M76.9999 29.038L-6.10352e-05 0V109.814L76.9999 138.852L143 113.962L220 143V33.1864L143 4.14829L76.9999 29.038Z" fill="#F2F2F2"/>
<path d="M77 29.0337L143 4.15549V113.966L77 138.844V29.0337Z" fill="#E7E7E7"/>
<path fill-rule="evenodd" clip-rule="evenodd" d="M141.027 32.4699C142.148 32.0571 143.389 32.0658 144.504 32.4917L180.703 46.3301L192.281 51.9277C195.072 53.2771 197.544 55.1666 199.542 57.478C202.91 61.3732 204.767 66.2741 204.796 71.3421L204.818 75.3257L204.891 88.0171L204.903 90.178C204.937 96.2074 201.815 101.848 196.597 105.181C194.797 106.331 192.899 107.331 190.922 108.171L189.088 108.95C183.564 111.297 177.312 111.5 171.636 109.517L164.591 107.057L160.641 105.72C155.679 104.041 152.348 99.54 152.319 94.4753C152.288 88.928 157.899 84.9746 163.38 86.6828L170.728 88.9724C177.104 90.9593 183.718 86.6391 184.159 80.2003L184.329 77.7091C184.676 72.6422 181.631 67.9256 176.759 65.982L145.623 53.5613C143.744 52.8116 141.641 52.7703 139.731 53.4457L125.357 58.5302L103.82 65.4675C101.6 66.1827 99.1666 65.9352 97.1503 64.7894C94.0547 63.0303 92.5385 59.5142 93.4289 56.1614L93.8054 54.7444C94.5987 51.7553 96.8188 49.306 99.7865 48.1436L120.743 39.9358L141.027 32.4699Z" fill="white"/>
<path fill-rule="evenodd" clip-rule="evenodd" d="M78.0807 118.277C76.9614 118.693 75.7207 118.689 74.604 118.267L38.3567 104.555L26.759 98.9982C23.9631 97.6586 21.4846 95.7777 19.4784 93.4733C16.0975 89.5899 14.2234 84.6955 14.1768 79.6277L14.1402 75.6442L14.0234 62.9532L14.0036 60.7923C13.9481 54.763 17.051 49.1118 22.257 45.7603C24.053 44.6042 25.9477 43.5974 27.9211 42.751L29.7526 41.9653C35.2686 39.5991 41.5198 39.374 47.2031 41.3368L54.2563 43.7727L58.2104 45.0955C63.1786 46.7574 66.5252 51.2466 66.5719 56.3112C66.6229 61.8583 61.0251 65.8314 55.538 64.1423L48.1826 61.8784C41.8 59.9138 35.2006 64.2571 34.7825 70.6974L34.6207 73.1891C34.2916 78.2572 37.3527 82.9632 42.2316 84.8898L73.4109 97.2015C75.2928 97.9446 77.3961 97.9786 79.3031 97.2965L93.6598 92.1618L115.172 85.1493C117.39 84.4263 119.824 84.6653 121.844 85.804C124.946 87.5523 126.475 91.0631 125.596 94.419L125.224 95.8373C124.441 98.8292 122.23 101.286 119.266 102.459L98.3386 110.74L78.0807 118.277Z" fill="white"/>
<path d="M129 106H169M166.5 106L164.332 136.355C164.243 137.616 163.678 138.797 162.753 139.659C161.827 140.521 160.61 141 159.345 141H138.655C137.39 141 136.173 140.521 135.247 139.659C134.322 138.797 133.757 137.616 133.668 136.355L131.5 106H166.5ZM144 116V131V116ZM154 116V131V116ZM156.5 106V98.5C156.5 97.837 156.237 97.2011 155.768 96.7322C155.299 96.2634 154.663 96 154 96H144C143.337 96 142.701 96.2634 142.232 96.7322C141.763 97.2011 141.5 97.837 141.5 98.5V106H156.5Z" stroke="#DCA6A6" stroke-width="2" stroke-linecap="round" stroke-linejoin="round"/>
<path fill-rule="evenodd" clip-rule="evenodd" d="M85.9264 101.665C86.1263 101.079 86.5504 100.598 87.1054 100.326C87.6604 100.054 88.3008 100.013 88.8859 100.214L102.281 104.803L106.856 91.4038C106.951 91.109 107.104 90.8362 107.306 90.6012C107.507 90.3662 107.753 90.1737 108.03 90.0351C108.307 89.8964 108.608 89.8143 108.917 89.7936C109.226 89.7728 109.536 89.8138 109.829 89.9142C110.122 90.0146 110.392 90.1723 110.624 90.3782C110.855 90.5841 111.043 90.834 111.177 91.1134C111.311 91.3927 111.388 91.6959 111.404 92.0053C111.419 92.3147 111.373 92.6241 111.268 92.9153L106.692 106.315L120.087 110.904C120.662 111.112 121.132 111.538 121.397 112.09C121.662 112.641 121.699 113.275 121.501 113.853C121.304 114.432 120.887 114.91 120.34 115.184C119.794 115.457 119.162 115.505 118.58 115.317L105.185 110.728L100.609 124.127C100.402 124.702 99.9766 125.173 99.4255 125.437C98.8744 125.701 98.2414 125.738 97.6629 125.54C97.0844 125.342 96.6067 124.924 96.3326 124.377C96.0585 123.83 96.01 123.198 96.1976 122.616L100.773 109.216L87.3787 104.627C86.7937 104.427 86.3121 104.002 86.0397 103.446C85.7674 102.891 85.7266 102.25 85.9264 101.665V101.665Z" fill="#F0C9C9"/>
</g>
<defs>
<clipPath id="clip0">
<rect width="220" height="143" fill="white"/>
</clipPath>
</defs>
</svg>
