<svg width="220" height="143" viewBox="0 0 220 143" fill="none" xmlns="http://www.w3.org/2000/svg">
<g clip-path="url(#clip0)">
<path d="M76.9999 29.038L-6.10352e-05 0V109.814L76.9999 138.852L143 113.962L220 143V33.1864L143 4.14829L76.9999 29.038Z" fill="#F2F2F2"/>
<path d="M77 29.0337L143 4.15549V113.966L77 138.844V29.0337Z" fill="#E7E7E7"/>
<path fill-rule="evenodd" clip-rule="evenodd" d="M144.027 28.4699C145.148 28.0571 146.389 28.0658 147.504 28.4917L183.703 42.3301L195.281 47.9277C198.072 49.2771 200.544 51.1666 202.542 53.478C205.91 57.3732 207.767 62.2741 207.796 67.3421L207.818 71.3257L207.891 84.0171L207.903 86.178C207.937 92.2074 204.815 97.8477 199.597 101.181C197.797 102.331 195.899 103.331 193.922 104.171L192.088 104.95C186.564 107.297 180.312 107.5 174.636 105.517L167.591 103.057L163.641 101.72C158.679 100.041 155.348 95.54 155.319 90.4753C155.288 84.928 160.899 80.9746 166.38 82.6828L173.728 84.9724C180.104 86.9593 186.718 82.6391 187.159 76.2003L187.329 73.7091C187.676 68.6422 184.631 63.9256 179.759 61.982L148.623 49.5613C146.744 48.8116 144.641 48.7703 142.731 49.4457L128.357 54.5302L106.82 61.4675C104.6 62.1827 102.167 61.9352 100.15 60.7894C97.0547 59.0303 95.5385 55.5142 96.4289 52.1614L96.8054 50.7444C97.5987 47.7553 99.8188 45.306 102.787 44.1436L123.743 35.9358L144.027 28.4699Z" fill="white"/>
</g>
<path d="M61.371 69.732C59.1341 70.6941 56.6999 70.0298 55.9336 68.2481L54.0837 63.947C53.3174 62.1653 54.5093 59.9414 56.7462 58.9793C57.5575 58.6227 64.3837 54.4203 62.5338 50.1192C61.6088 47.9686 57.9839 46.9793 53.934 48.7212C50.6386 50.1385 49.459 53.1943 49.9214 54.2696C50.6878 56.0513 49.4958 58.2752 47.2589 59.2373C45.022 60.1994 42.5878 59.5351 41.8215 57.7533C39.5656 52.5082 43.8422 45.4166 51.1591 42.2696C61.959 37.6246 68.7755 42.315 71.0962 47.7107C73.0131 52.1677 71.4043 56.8962 66.564 61.0257C65.5113 61.9257 64.419 62.6962 63.417 63.331L64.0335 64.7643C64.7998 66.5461 63.6079 68.7699 61.371 69.732Z" fill="white"/>
<path d="M65.0708 78.3342C67.3075 77.3722 68.4996 75.1481 67.7333 73.3665C66.9671 71.5849 64.5327 70.9206 62.2959 71.8826C60.0592 72.8446 58.8671 75.0687 59.6334 76.8503C60.3996 78.6319 62.834 79.2962 65.0708 78.3342Z" fill="white"/>
<path d="M96 113.5L89.9655 119L67.5 91L69 86.5L96 113.5Z" fill="#DEDEDE"/>
<path d="M98.5 116L92.4655 121.5L74 101L80 95.5L98.5 116Z" fill="#D6D5D5"/>
<path fill-rule="evenodd" clip-rule="evenodd" d="M75 79.5C75 88.6127 67.6127 96 58.5 96C49.3873 96 42 88.6127 42 79.5C42 70.3873 49.3873 63 58.5 63C67.6127 63 75 70.3873 75 79.5ZM70.1111 79.5C70.1111 85.9126 64.9126 91.1111 58.5 91.1111C52.0874 91.1111 46.8889 85.9126 46.8889 79.5C46.8889 73.0874 52.0874 67.8889 58.5 67.8889C64.9126 67.8889 70.1111 73.0874 70.1111 79.5Z" fill="#D8D8D8"/>
<path d="M58.5 91C64.8513 91 70 85.8513 70 79.5C70 73.1487 64.8513 68 58.5 68C52.1487 68 47 73.1487 47 79.5C47 85.8513 52.1487 91 58.5 91Z" fill="white" fill-opacity="0.47"/>
<defs>
<clipPath id="clip0">
<rect width="220" height="143" fill="white"/>
</clipPath>
</defs>
</svg>
