<svg width="220" height="143" viewBox="0 0 220 143" fill="none" xmlns="http://www.w3.org/2000/svg">
<g clip-path="url(#clip0)">
<path d="M76.9999 29.038L-6.10352e-05 0V109.814L76.9999 138.852L143 113.962L220 143V33.1864L143 4.14829L76.9999 29.038Z" fill="#F2F2F2"/>
<path d="M77 29.0337L143 4.15549V113.966L77 138.844V29.0337Z" fill="#E7E7E7"/>
<path fill-rule="evenodd" clip-rule="evenodd" d="M78.2468 113.376C77.0765 113.793 75.7794 113.789 74.6119 113.366L36.7181 99.6496L24.5937 94.091C21.6708 92.7509 19.0799 90.8698 16.9828 88.5651C13.4487 84.6812 11.4901 79.7866 11.4421 74.7187L11.4043 70.7352L11.2841 58.0442L11.2636 55.8833C11.2065 49.854 14.4513 44.2032 19.8946 40.8524C21.7724 39.6966 23.7535 38.6901 25.8167 37.8439L27.7316 37.0585C33.4989 34.693 40.0344 34.4687 45.9758 36.4323L53.3495 38.8692L57.4833 40.1926C62.6771 41.8552 66.1754 46.3448 66.2234 51.4094C66.276 56.9566 60.423 60.9288 54.6866 59.239L46.997 56.9741C40.3244 55.0086 33.4242 59.351 32.9862 65.7913L32.8167 68.283C32.4719 73.351 35.6715 78.0574 40.772 79.9846L73.3675 92.3007C75.335 93.044 77.534 93.0783 79.5278 92.3965L94.5381 87.2638L117.03 80.2542C119.349 79.5315 121.893 79.7708 124.005 80.9099C127.248 82.6585 128.845 86.1696 127.926 89.5253L127.538 90.9436C126.719 93.9354 124.406 96.392 121.308 97.5644L99.427 105.843L78.2468 113.376Z" fill="white"/>
</g>
<path d="M134.207 49.9267C132.218 49.5951 130.842 47.9119 131.133 46.1669L131.836 41.9543C132.127 40.2093 133.974 39.0637 135.963 39.3954C136.688 39.5097 143.34 39.5431 144.043 35.3305C144.394 33.2242 142.345 30.7177 138.744 30.1173C135.814 29.6287 133.592 31.423 133.416 32.4761C133.125 34.2212 131.277 35.3667 129.289 35.0351C127.3 34.7035 125.924 33.0203 126.215 31.2753C127.071 26.1381 133.292 22.7137 139.798 23.7984C149.399 25.3996 151.949 32.2999 151.068 37.5845C150.34 41.9498 147.051 44.8304 141.805 45.695C140.663 45.8845 139.553 45.9549 138.569 45.9639L138.334 47.3677C138.043 49.1128 136.196 50.2584 134.207 49.9267Z" fill="white"/>
<path d="M132.802 58.3518C134.791 58.6834 136.639 57.5377 136.93 55.7928C137.221 54.0479 135.844 52.3646 133.856 52.033C131.867 51.7014 130.019 52.8471 129.728 54.592C129.437 56.3369 130.813 58.0202 132.802 58.3518Z" fill="white"/>
<path d="M165 88.5L158.966 94L136.5 66L138 61.5L165 88.5Z" fill="#DEDEDE"/>
<path d="M167.5 91L161.466 96.5L143 76L149 70.5L167.5 91Z" fill="#D6D5D5"/>
<path fill-rule="evenodd" clip-rule="evenodd" d="M144 54.5C144 63.6127 136.613 71 127.5 71C118.387 71 111 63.6127 111 54.5C111 45.3873 118.387 38 127.5 38C136.613 38 144 45.3873 144 54.5ZM139.111 54.5C139.111 60.9126 133.913 66.1111 127.5 66.1111C121.087 66.1111 115.889 60.9126 115.889 54.5C115.889 48.0874 121.087 42.8889 127.5 42.8889C133.913 42.8889 139.111 48.0874 139.111 54.5Z" fill="#D8D8D8"/>
<path d="M127.5 66C133.851 66 139 60.8513 139 54.5C139 48.1487 133.851 43 127.5 43C121.149 43 116 48.1487 116 54.5C116 60.8513 121.149 66 127.5 66Z" fill="white" fill-opacity="0.47"/>
<defs>
<clipPath id="clip0">
<rect width="220" height="143" fill="white"/>
</clipPath>
</defs>
</svg>
